<svg width="14" height="8" viewBox="0 0 14 8" fill="none" xmlns="http://www.w3.org/2000/svg">
<path d="M6.96923 0.496428C6.85998 0.503072 6.75607 0.547092 6.67417 0.621428L0.162547 6.62142C0.112398 6.66449 0.0712177 6.71745 0.0414526 6.77714C0.0116875 6.83683 -0.00605502 6.90202 -0.0107206 6.96887C-0.0153862 7.03572 -0.00687974 7.10284 0.0142934 7.16626C0.0354665 7.22967 0.0688742 7.28809 0.112531 7.33802C0.156189 7.38796 0.209204 7.42839 0.268429 7.45694C0.327653 7.48548 0.391878 7.50155 0.457286 7.50418C0.522694 7.50681 0.587952 7.49596 0.649181 7.47226C0.71041 7.44856 0.766361 7.41249 0.81371 7.36622L6.99975 1.66831L13.1858 7.36622C13.2331 7.41249 13.2891 7.44856 13.3503 7.47226C13.4116 7.49596 13.4768 7.50681 13.5422 7.50418C13.6076 7.50155 13.6719 7.48548 13.7311 7.45694C13.7903 7.42839 13.8433 7.38796 13.887 7.33802C13.9306 7.28809 13.964 7.22967 13.9852 7.16626C14.0064 7.10284 14.0149 7.03572 14.0102 6.96887C14.0056 6.90202 13.9878 6.83683 13.9581 6.77714C13.9283 6.71745 13.8871 6.66449 13.837 6.62142L7.32534 0.621428C7.27701 0.577511 7.22065 0.543845 7.15952 0.522388C7.09839 0.500931 7.03371 0.49211 6.96923 0.496428Z" fill="black"/>
</svg>
