<svg width="14" height="8" viewBox="0 0 14 8" fill="none" xmlns="http://www.w3.org/2000/svg">
<path d="M7.03077 7.50357C7.14002 7.49693 7.24393 7.45291 7.32583 7.37857L13.8375 1.37858C13.8876 1.33551 13.9288 1.28255 13.9585 1.22286C13.9883 1.16317 14.0061 1.09798 14.0107 1.03113C14.0154 0.964283 14.0069 0.897156 13.9857 0.833742C13.9645 0.770328 13.9311 0.711914 13.8875 0.661979C13.8438 0.612044 13.7908 0.571606 13.7316 0.543062C13.6723 0.514518 13.6081 0.498451 13.5427 0.495821C13.4773 0.49319 13.412 0.504043 13.3508 0.527742C13.2896 0.551442 13.2336 0.587506 13.1863 0.63378L7.00025 6.33169L0.8142 0.633779C0.766851 0.587505 0.710899 0.551441 0.64967 0.527741C0.588442 0.504041 0.523184 0.493189 0.457776 0.49582C0.392368 0.49845 0.328144 0.514517 0.26892 0.543061C0.209695 0.571605 0.156679 0.612043 0.113021 0.661978C0.0693651 0.711913 0.035957 0.770326 0.0147835 0.833741C-0.00638904 0.897155 -0.0148958 0.964282 -0.0102295 1.03113C-0.00556413 1.09797 0.0121771 1.16317 0.0419422 1.22286C0.0717073 1.28255 0.112888 1.33551 0.163037 1.37858L6.67466 7.37857C6.72299 7.42249 6.77935 7.45615 6.84048 7.47761C6.90161 7.49907 6.96629 7.50789 7.03077 7.50357Z" fill="black"/>
</svg>
